<?xml version="1.0" standalone="no"?>
<!DOCTYPE svg PUBLIC "-//W3C//DTD SVG 1.1//EN" "http://www.w3.org/Graphics/SVG/1.1/DTD/svg11.dtd" >
<svg xmlns="http://www.w3.org/2000/svg">
<metadata>
Created by FontForge 20120731 at Tue Nov  8 14:29:42 2016
 By admin
</metadata>
<defs>
<font id="iconfont" horiz-adv-x="1024" >
  <font-face 
    font-family="iconfont"
    font-weight="500"
    font-stretch="normal"
    units-per-em="1024"
    panose-1="2 0 6 3 0 0 0 0 0 0"
    ascent="896"
    descent="-128"
    x-height="792"
    bbox="-0.522934 -127.524 1024.31 896.125"
    underline-thickness="0"
    underline-position="0"
    unicode-range="U+0078-E649"
  />
<missing-glyph 
 />
    <glyph glyph-name=".notdef" 
 />
    <glyph glyph-name=".notdef" 
 />
    <glyph glyph-name=".null" horiz-adv-x="0" 
 />
    <glyph glyph-name="nonmarkingreturn" horiz-adv-x="341" 
 />
    <glyph glyph-name="x" unicode="x" horiz-adv-x="1001" 
d="M281 543q-27 -1 -53 -1h-83q-18 0 -36.5 -6t-32.5 -18.5t-23 -32t-9 -45.5v-76h912v41q0 16 -0.5 30t-0.5 18q0 13 -5 29t-17 29.5t-31.5 22.5t-49.5 9h-133v-97h-438v97zM955 310v-52q0 -23 0.5 -52t0.5 -58t-10.5 -47.5t-26 -30t-33 -16t-31.5 -4.5q-14 -1 -29.5 -0.5
t-29.5 0.5h-32l-45 128h-439l-44 -128h-29h-34q-20 0 -45 1q-25 0 -41 9.5t-25.5 23t-13.5 29.5t-4 30v167h911zM163 247q-12 0 -21 -8.5t-9 -21.5t9 -21.5t21 -8.5q13 0 22 8.5t9 21.5t-9 21.5t-22 8.5zM316 123q-8 -26 -14 -48q-5 -19 -10.5 -37t-7.5 -25t-3 -15t1 -14.5
t9.5 -10.5t21.5 -4h37h67h81h80h64h36q23 0 34 12t2 38q-5 13 -9.5 30.5t-9.5 34.5q-5 19 -11 39h-368zM336 498v228q0 11 2.5 23t10 21.5t20.5 15.5t34 6h188q31 0 51.5 -14.5t20.5 -52.5v-227h-327z" />
    <glyph glyph-name="icon-arrowleft" unicode="&#xe601;" 
d="M695 -85v0q-20 0 -33 15l-365 426q-11 12 -11 28t11 28l365 426q13 15 33 15q16 0 28 -10q13 -11 14.5 -29t-10.5 -31l-342 -399l342 -399q11 -12 11 -28q0 -17 -12.5 -29.5t-30.5 -12.5v0z" />
    <glyph glyph-name="icon-arrowtop2" unicode="&#xe602;" 
d="M512 -96q98 0 186.5 38t153 102.5t102.5 153t38 186.5t-38 186.5t-102.5 153t-153 102.5t-186.5 38t-186.5 -38t-153 -102.5t-102.5 -153t-38 -186.5t38 -186.5t102.5 -153t153 -102.5t186.5 -38zM329 320l183 183l183 -183q9 -9 9 -22.5t-9.5 -23t-22.5 -9.5t-23 10
l-137 137l-137 -137q-10 -10 -23 -10t-22.5 9.5t-9.5 23t9 22.5z" />
    <glyph glyph-name="icon-arrowright" unicode="&#xe603;" 
d="M329 853q20 0 33 -15l365 -426q10 -12 10 -28t-10 -28l-365 -426q-13 -15 -32 -15q-18 0 -30.5 12.5t-12.5 30.5q0 15 10 27l342 399l-342 399q-10 12 -10 28q0 17 12.5 29.5t29.5 12.5z" />
    <glyph glyph-name="icon-arrowleft2" unicode="&#xe604;" 
d="M939 427h-751l226 225q13 13 13 30.5t-12.5 30t-30.5 12.5t-30 -12l-299 -299q-12 -12 -12 -30t12 -30l299 -299q12 -12 30 -12t30.5 12.5t12.5 30t-13 29.5l-226 226h751q17 0 29.5 12.5t12.5 30.5t-12.5 30.5t-29.5 12.5z" />
    <glyph glyph-name="icon-arrowtop" unicode="&#xe605;" 
d="M512 661v0q15 0 32.5 -7t27.5 -18l384 -384q11 -10 18.5 -28t7.5 -33q0 -35 -25 -60t-60 -25q-15 0 -33 7.5t-28 18.5l-324 323l-324 -323q-10 -11 -28 -18.5t-33 -7.5q-35 0 -60 25t-25 60q0 15 7.5 33t18.5 28l384 384q10 11 27.5 18t32.5 7v0z" />
    <glyph glyph-name="icon-arrowdown3" unicode="&#xe606;" 
d="M512 832q185 0 316.5 -131.5t131.5 -316.5t-131.5 -316.5t-316.5 -131.5t-316.5 131.5t-131.5 316.5t131.5 316.5t316.5 131.5zM512 864q-98 0 -186.5 -38t-153 -102.5t-102.5 -153t-38 -186.5t38 -186.5t102.5 -153t153 -102.5t186.5 -38t186.5 38t153 102.5t102.5 153
t38 186.5t-38 186.5t-102.5 153t-153 102.5t-186.5 38zM512 259l-183 182q-9 10 -9 23t9.5 22.5t22.5 9.5t23 -9l137 -138l137 138q10 9 23 9t22.5 -9.5t9.5 -22.5t-9 -23z" />
    <glyph glyph-name="icon-arrowtop3" unicode="&#xe607;" 
d="M512 -64q-185 0 -316.5 131.5t-131.5 316.5t131.5 316.5t316.5 131.5t316.5 -131.5t131.5 -316.5t-131.5 -316.5t-316.5 -131.5zM512 -96q98 0 186.5 38t153 102.5t102.5 153t38 186.5t-38 186.5t-102.5 153t-153 102.5t-186.5 38t-186.5 -38t-153 -102.5t-102.5 -153
t-38 -186.5t38 -186.5t102.5 -153t153 -102.5t186.5 -38zM512 509l183 -182q9 -10 9 -23t-9.5 -22.5t-22.5 -9.5t-23 9l-137 138l-137 -138q-10 -9 -23 -9t-22.5 9.5t-9.5 22.5t9 23z" />
    <glyph glyph-name="icon-bell" unicode="&#xe608;" 
d="M975 79l-170 175v312q0 119 -86 203t-207.5 84t-207.5 -84t-86 -203v-312l-169 -175q-6 -6 -6 -15t6 -15t15 -6h285q9 -54 55.5 -91t107.5 -37t107.5 37t55.5 91h285v0q9 0 15 6t6 15t-6 15zM512 -43q-43 0 -77 24.5t-43 61.5h240q-9 -37 -43 -61.5t-77 -24.5zM114 85
l141 145q6 6 6 15v321q0 101 73.5 173t177 72t177.5 -72t74 -173v-321q0 -12 9 -18l138 -142h-796z" />
    <glyph glyph-name="icon-calendar2" unicode="&#xe609;" 
d="M832 766v-126h-256v126h-128v-126h-256v126h-128v-830h896v830h-128zM192 64v448h640v-448h-640zM256 832h128v-128h-128v128zM640 832h128v-128h-128v128zM256 256h512v-128h-512v128zM256 448h512v-128h-512v128z" />
    <glyph glyph-name="icon-change" unicode="&#xe60a;" 
d="M112 720q0 7 5 11.5t11 4.5h719q27 0 46 -18t19 -45v-376l85 85q5 4 11.5 4t11 -4.5t4.5 -11t-4 -11.5l-112 -112q-5 -5 -11.5 -5t-11.5 5l-112 112q-5 5 -5 11.5t5 11t11.5 4.5t11.5 -4l84 -85v376q0 14 -9.5 22.5t-23.5 8.5h-719q-6 0 -11 4.5t-5 11.5zM28 391l84 85
v-376q0 -27 19.5 -47.5t46.5 -20.5h718q7 0 11.5 4.5t4.5 11.5t-4.5 11.5t-11.5 4.5h-718q-14 0 -24 11t-10 25v376l85 -85q5 -5 11.5 -5t11 5t4.5 11.5t-4 11.5l-112 112q-5 4 -12 4v0v0q-6 0 -11 -4l-112 -112q-5 -5 -5 -11.5t5 -11.5t11.5 -5t11.5 5z" />
    <glyph glyph-name="icon-calendar" unicode="&#xe60b;" 
d="M257 319h512q14 0 23 9.5t9 22.5t-9 22.5t-23 9.5h-512q-13 0 -22.5 -9.5t-9.5 -22.5t9.5 -22.5t22.5 -9.5zM257 127h512q14 0 23 9.5t9 22.5t-9 22.5t-23 9.5h-512q-13 0 -22.5 -9.5t-9.5 -22.5t9.5 -22.5t22.5 -9.5zM448 704h160q13 0 22.5 9.5t9.5 22.5t-9.5 22.5
t-22.5 9.5h-160q-13 0 -22.5 -9.5t-9.5 -22.5t9.5 -22.5t22.5 -9.5zM847 768h-47q-13 0 -22.5 -9.5t-9.5 -22.5t9.5 -22.5t22.5 -9.5h47q5 0 11 -9t6 -23v-96h-704v96q0 13 9 22.5t22 9.5h65q13 0 22.5 9.5t9.5 22.5t-9.5 22.5t-22.5 9.5h-65q-39 0 -67 -28t-28 -68v-640
q0 -40 28 -68t68 -28h640q40 0 68 28t28 68v640q0 40 -24 68t-57 28zM864 32q0 -13 -9.5 -22.5t-22.5 -9.5h-640q-13 0 -22.5 9.5t-9.5 22.5v480h704v-480zM704 672q13 0 22.5 9.5t9.5 22.5v96q0 13 -9.5 22.5t-22.5 9.5t-22.5 -9.5t-9.5 -22.5v-96q0 -13 9.5 -22.5
t22.5 -9.5zM352 672q13 0 22.5 9.5t9.5 22.5v96q0 13 -9.5 22.5t-22.5 9.5t-22.5 -9.5t-9.5 -22.5v-96q0 -13 9.5 -22.5t22.5 -9.5z" />
    <glyph glyph-name="icon-bulb" unicode="&#xe60c;" 
d="M512 704q-85 0 -159 -45t-117.5 -122t-43.5 -165.5t45 -164.5t122 -119v-27q0 -25 18.5 -43t44.5 -18h176q16 0 27 5q18 7 29 22.5t11 33.5v27q77 42 122 118.5t45 165.5q0 88 -43.5 165t-117.5 122t-159 45zM619 136l-18 -8v-64h-1h-1h-1h-172l-3 -3v67l-19 9
q-67 32 -107.5 95.5t-40.5 139.5q0 109 76 188.5t180 79.5t180 -79.5t76 -188.5q0 -76 -40.5 -140t-108.5 -96zM512 768q13 0 22.5 9.5t9.5 22.5v32q0 13 -9.5 22.5t-22.5 9.5t-22.5 -9.5t-9.5 -22.5v-32q0 -13 9.5 -22.5t22.5 -9.5zM218 646q13 0 22.5 9.5t9.5 23t-9 22.5
l-23 23q-9 9 -22.5 9t-23 -9.5t-9.5 -22.5t10 -23l22 -22q10 -10 23 -10v0zM96 416h-32q-13 0 -22.5 -9t-9.5 -22.5t9.5 -23t22.5 -9.5h32q13 0 22.5 9.5t9.5 23t-9.5 22.5t-22.5 9zM960 416h-32q-13 0 -22.5 -9.5t-9.5 -22.5t9.5 -22.5t22.5 -9.5h32q13 0 22.5 9.5
t9.5 22.5t-9.5 22.5t-22.5 9.5zM806 723l-22 -22q-10 -10 -10 -23t9.5 -22.5t22.5 -9.5t23 9l22 23q10 9 10 22.5t-9.5 23t-22.5 9.5t-23 -10zM574 -29h-124q-14 0 -24 -10t-10 -24t10 -23.5t24 -9.5h124q15 0 24.5 9.5t9.5 23.5t-10 24t-24 10z" />
    <glyph glyph-name="icon-charge" unicode="&#xe60d;" 
d="M512 864q-98 0 -186.5 -38t-153 -102.5t-102.5 -153t-38 -186.5t38 -186.5t102.5 -153t153 -102.5t186.5 -38t186.5 38t153 102.5t102.5 153t38 186.5t-38 186.5t-102.5 153t-153 102.5t-186.5 38zM512 -54q-89 0 -170 35t-139.5 93.5t-93.5 139.5t-35 170t35 170
t93.5 139.5t139.5 93.5t170 35t170 -35t139.5 -93.5t93.5 -139.5t35 -170t-35 -170t-93.5 -139.5t-139.5 -93.5t-170 -35zM747 269q-21 6 -42 14l-3 1v-3q-2 -43 -6 -62q-3 -21 -32 -21h-45q-17 0 -23 7v0q-4 5 -4 25v138l62 2q14 -18 29 -37l1 -2l38 27l-2 3
q-44 55 -117 129l-1 2l-32 -24l2 -2q26 -29 51 -59q-86 -2 -221 -5q53 52 101 108h239v41h-209l18 10l-1 2q-17 28 -36 55l-2 1l-38 -21l2 -3q13 -18 28 -44h-221v-41h162q-39 -48 -84 -91q-18 -16 -43 -22h-3l22 -46l2 1q24 6 37 7q25 2 51 3q-3 -56 -26 -92
q-32 -51 -125 -80l-3 -2l2 -3q14 -19 23 -34l2 -2h2q99 35 137 95q27 44 30 120q47 1 79 2v-142q0 -35 14 -48q14 -16 51 -16h59q61 0 69 46q4 27 8 60v2z" />
    <glyph glyph-name="icon-computer" unicode="&#xe60e;" 
d="M944 768h-864q-20 0 -34 -13.5t-14 -32.5v-564q0 -19 14 -32.5t34 -13.5h304v-48l-96 -46v-18h448v17l-96 47v48h304q20 0 34 13.5t14 32.5v564q0 19 -14 32.5t-34 13.5zM927 704v-464h-830v464h830z" />
    <glyph glyph-name="icon-add2" unicode="&#xe60f;" 
d="M512 -96q-26 0 -45 19t-19 45v832q0 26 19 45t45 19t45 -19t19 -45v-832q0 -26 -19 -45t-45 -19zM928 320h-832q-26 0 -45 19t-19 45t19 45t45 19h832q26 0 45 -19t19 -45t-19 -45t-45 -19z" />
    <glyph glyph-name="icon-clock" unicode="&#xe610;" 
d="M809 830q-60 0 -106 -37q70 -30 140.5 -101t100.5 -141q16 19 26.5 50.5t10.5 56.5q0 71 -50.5 121.5t-121.5 50.5v0zM327 792q-19 15 -51 26t-57 11q-73 0 -124.5 -51.5t-51.5 -124.5q0 -25 11 -56.5t26 -51.5q31 72 103.5 144t143.5 103zM512 792q-116 0 -214 -57.5
t-155.5 -155.5t-57.5 -214q0 -70 34 -155t82 -136l-60 -60q-13 -13 -13 -30.5t12.5 -30t30.5 -12.5v0v0q17 0 30 12l64 64q46 -32 118.5 -55.5t128.5 -23.5t128.5 23.5t118.5 55.5l64 -64q13 -12 30.5 -12t30 12.5t12.5 30t-13 29.5l-60 61q48 51 82 136t34 155
q0 116 -57.5 214t-155.5 155.5t-214 57.5zM171 364.5q0 92.5 45.5 171.5t124 124.5t171.5 45.5t171.5 -45.5t124 -124.5t45.5 -171.5t-45.5 -171t-124 -124t-171.5 -45.5t-171.5 45.5t-124 124t-45.5 171zM707 408h-152v188q0 18 -12.5 30.5t-30.5 12.5t-30.5 -12.5
t-12.5 -30.5v-231q0 -18 12.5 -30.5t30.5 -12.5h195v0q17 0 29.5 12.5t12.5 30.5t-12.5 30.5t-29.5 12.5v0z" />
    <glyph glyph-name="icon-add" unicode="&#xe611;" 
d="M512 -64q-90 0 -171.5 34t-145.5 97q-54 54 -92.5 146.5t-38.5 169.5v1q0 90 34 171.5t97 145.5q54 54 146.5 92.5t169.5 38.5h1q90 0 171.5 -34t145.5 -97q54 -54 92.5 -146.5t38.5 -169.5v-1q0 -90 -34 -171.5t-97 -145.5q-54 -54 -146.5 -92.5t-169.5 -38.5h-1z
M512 768h-1q-66 0 -145 -33t-126 -80q-46 -46 -79 -125t-33 -145v-1q0 -77 29 -147t83.5 -124.5t124.5 -83.5t147 -29t147 29t125 84q46 46 79 125t33 145v1v1q0 66 -33 145t-79 125q-47 47 -126 80t-145 33h-1zM736 416h-192v193q0 13 -9.5 22.5t-22.5 9.5t-22.5 -9.5
t-9.5 -22.5v-193h-192q-13 0 -22.5 -9.5t-9.5 -22.5t9.5 -22.5t22.5 -9.5h192v-193v-2q0 -13 9.5 -22.5t22.5 -9.5t22.5 9.5t9.5 22.5v2v193h192q13 0 22.5 9.5t9.5 22.5t-9.5 22.5t-22.5 9.5v0z" />
    <glyph glyph-name="icon-compare" unicode="&#xe612;" 
d="M562 385q0 -68 60 -115t145.5 -47t145.5 47t60 115q-1 7 -3 14l-171 319q-5 7 -13 13q-8 3 -18 5h-224v31q0 14 -8.5 23.5t-23 9.5t-23.5 -9.5t-9 -23.5v-31h-223q-9 0 -17 -5h-1q-7 -6 -12 -12l-172 -320q-4 -5 -4 -14q0 -68 60 -115t145.5 -47t145.5 47t60 115
q0 8 -3 14l-146 273h167v-607v-1v0h-256q-13 0 -22.5 -9.5t-9.5 -22.5t9.5 -22.5t22.5 -9.5h576q13 0 22.5 9.5t9.5 22.5t-9.5 22.5t-22.5 9.5h-256v0v1v607h168l-147 -273q-2 -7 -3 -14zM256.5 287q-43.5 0 -79 18t-49.5 47h257q-14 -29 -49.5 -47t-79 -18zM372 415h-230
l115 216zM768 631l114 -216h-230zM896 352q-14 -29 -49.5 -47t-79 -18t-79 18t-49.5 47h257z" />
    <glyph glyph-name="icon-arrowdown" unicode="&#xe613;" 
d="M512 107v0q-15 0 -32.5 7t-27.5 18l-384 384q-11 10 -18.5 28t-7.5 33q0 35 25 60t60 25q15 0 33 -7.5t28 -18.5l324 -323l324 323q10 11 28 18.5t33 7.5q35 0 60 -25t25 -60q0 -15 -7.5 -33t-18.5 -28l-384 -384q-10 -11 -27.5 -18t-32.5 -7v0z" />
    <glyph glyph-name="icon-arrowdown2" unicode="&#xe614;" 
d="M512 864q-98 0 -186.5 -38t-153 -102.5t-102.5 -153t-38 -186.5t38 -186.5t102.5 -153t153 -102.5t186.5 -38t186.5 38t153 102.5t102.5 153t38 186.5t-38 186.5t-102.5 153t-153 102.5t-186.5 38zM695 448l-183 -183l-183 183q-9 9 -9 22.5t9.5 23t22.5 9.5t23 -10
l137 -137l137 137q10 10 23 10t22.5 -9.5t9.5 -23t-9 -22.5z" />
    <glyph glyph-name="icon-horn2" unicode="&#xe615;" 
d="M544 19v0q-10 0 -18 6l-244 161h-186q-13 0 -22.5 9t-9.5 23v332q0 14 9.5 23t22.5 9h186l244 161v1q0 13 9.5 22.5t23 9.5t22.5 -9.5t9 -22.5q0 -18 -14 -27v-666v0q0 -13 -9.5 -22.5t-22.5 -9.5v0zM128 250h164q10 0 18 -6l202 -133v546l-202 -133q-8 -6 -18 -6v0h-164
v-268zM792 41v0q-13 0 -22.5 9t-9.5 23q0 18 16 28q58 32 89 113t31 169q0 90 -31 171t-90 113q-17 9 -17 28q0 14 9.5 23t22.5 9q8 0 15 -4q41 -22 72 -62t48.5 -87.5t26 -95.5t8.5 -95q0 -63 -14 -125.5t-49.5 -122.5t-88.5 -90q-7 -4 -16 -4v0zM675 164q-13 0 -22.5 9.5
t-9.5 22.5q0 15 11 24q31 27 53.5 75.5t22.5 89.5t-21.5 88.5t-52.5 74.5q-11 10 -11 25q0 13 9 22.5t23 9.5q12 0 22 -9q39 -35 67 -97t28 -114q0 -53 -29 -115.5t-69 -97.5q-9 -8 -21 -8z" />
    <glyph glyph-name="icon-heart-line" unicode="&#xe616;" 
d="M691 833v0q-40 0 -92.5 -15.5t-86.5 -36.5q-34 21 -86.5 36.5t-92.5 15.5v0q-91 0 -167.5 -44.5t-121 -121t-44.5 -167.5q0 -128 86 -222q11 -13 24 -25l245 -244q11 -15 25 -26q24 -20 62.5 -34t69.5 -14v0v0q31 0 69.5 14t61.5 34q15 11 27 26l244 244q13 12 24 25
q86 94 86 222q0 91 -44.5 167.5t-121 121t-167.5 44.5z" />
    <glyph glyph-name="icon-heart" unicode="&#xe617;" 
d="M691 760q108 0 184 -76t76 -184v0q0 -41 -19.5 -92t-47.5 -81q-9 -11 -19 -20q-1 -1 -3 -2l-244 -245q-2 -2 -5 -4q-7 -10 -16 -17q-37 -31 -85 -31t-85 31q-9 7 -16 17q-2 2 -5 4l-244 245q-2 1 -3 2q-10 9 -19 20q-28 30 -47.5 81t-19.5 92v0q0 108 76 184t184 76v0
q31 0 72 -12t68 -29q18 -11 39 -11t39 11q27 17 67.5 29t72.5 12v0zM691 833v0q-40 0 -92.5 -15.5t-86.5 -36.5q-34 21 -86.5 36.5t-92.5 15.5v0q-91 0 -167.5 -44.5t-121 -121t-44.5 -167.5q0 -128 86 -222q11 -13 24 -25l245 -244q11 -15 25 -26q24 -20 62.5 -34t69.5 -14
v0v0q31 0 69.5 14t61.5 34q15 11 27 26l244 244q13 12 24 25q86 94 86 222q0 91 -44.5 167.5t-121 121t-167.5 44.5z" />
    <glyph glyph-name="icon-horn" unicode="&#xe618;" 
d="M574 704q-13 0 -22 -7l-275 -121h-119q-26 0 -44 -18t-18 -43v-264q1 -24 19 -41.5t43 -17.5h31h1q13 0 22 9t9 22q0 12 -8.5 21t-20.5 9q-15 1 -24 14.5t-9 54.5v131q0 35 9.5 46.5t40.5 12.5h72q5 0 264 115v-486l-216 95q-8 6 -18 6q-16 0 -25 -13q-6 -8 -6 -18
q0 -16 13 -25l259 -116q8 -6 22 -6t24 9t10 22v578q0 13 -10.5 22t-23.5 9v0zM706 543q-7 7 -13.5 10.5t-9.5 3.5h-3q-14 -1 -21.5 -9t-8.5 -17v-8q-1 -8 6.5 -19t15.5 -18l8 -7q31 -42 31 -94t-31 -93l-9 -9t-13.5 -16.5t-8.5 -18.5q0 -4 1 -9.5t9 -14.5t21 -10q14 0 25 13
q29 27 49 73t20 85q0 93 -68 158zM812 621q-9 10 -22.5 10t-21.5 -8t-8 -16l-1 -8q0 -9 8 -19t16 -16l8 -6q74 -74 74 -181.5t-74 -181.5q-32 -25 -32 -41q-1 -3 0 -8.5t8.5 -14.5t21.5 -9t24 11q48 39 81.5 110.5t33.5 132.5v1v0q0 62 -34 133.5t-82 110.5z" />
    <glyph glyph-name="icon-file2" unicode="&#xe619;" 
d="M896 -58v549q0 23 -1 27q-11 141 -115 238t-247 97h-384q-8 0 -14.5 -6t-6.5 -15v-896q0 -9 6.5 -15t14.5 -6h726h1q8 0 14.5 6t6.5 15q0 3 -1 6zM850 532l2 -20h-297v298q108 -8 194.5 -89.5t100.5 -188.5zM171 -43v854h341v-320v0q0 -9 6.5 -15.5t14.5 -6.5h320v-512
h-682zM277 341h470q8 0 14.5 6.5t6.5 15t-6.5 15t-14.5 6.5h-470q-8 0 -14.5 -6.5t-6.5 -15t6.5 -15t14.5 -6.5zM747 256h-470q-8 0 -14.5 -6.5t-6.5 -15t6.5 -15t14.5 -6.5h470q8 0 14.5 6.5t6.5 15t-6.5 15t-14.5 6.5zM747 128h-470q-8 0 -14.5 -6.5t-6.5 -15t6.5 -15
t14.5 -6.5h470q8 0 14.5 6.5t6.5 15t-6.5 15t-14.5 6.5z" />
    <glyph glyph-name="icon-hammer" unicode="&#xe61a;" 
d="M959 240.5q-3 13.5 -15 20.5l-354 201l75 118q13 21 13 45q0 10 -2 19q-4 14 -14.5 29.5t-23.5 23.5l-193 122q-20 13 -45 13v0v0q-19 0 -40 -11.5t-31 -28.5l-252 -398q-13 -20 -13 -45q0 -9 2 -19q3 -14 14 -29.5t23 -22.5l193 -122q21 -13 45 -13v0h1q19 0 40 11.5
t31 27.5l74 118l334 -233q9 -6 19 -6q3 0 6 1q13 2 21 14l88 140q7 11 4 24.5zM359 216q-6 -9 -18 -9q-5 0 -11 3l-193 122q-9 6 -9 17q0 6 3 11l252 398q6 10 17 10q6 0 11 -3l193 -122q8 -5 9 -13q1 -2 1 -5q0 -6 -3 -11zM831 138l-309 216l34 54l327 -186zM540 633
q-7 5 -16 5v0q-18 0 -28 -15l-69 -109q-5 -8 -5 -17q0 -18 15 -27q8 -5 17 -5q18 0 27 15l69 109q5 8 5 17q0 18 -15 27zM611 0h-451q-13 0 -22.5 -9.5t-9.5 -22.5t9.5 -22.5t22.5 -9.5h451q13 0 22.5 9.5t9.5 23t-9.5 22.5t-22.5 9z" />
    <glyph glyph-name="icon-keyboard" unicode="&#xe61b;" 
d="M64 704h128v-128h-128v128zM320 704h128v-128h-128v128zM832 704h128v-128h-128v128zM576 704h128v-128h-128v128zM64 448h128v-128h-128v128zM320 192h384v-128h-384v128zM320 448h128v-128h-128v128zM832 448h128v-128h-128v128zM576 448h128v-128h-128v128z" />
    <glyph glyph-name="icon-link" unicode="&#xe61c;" 
d="M600 276h-544q-10 0 -17 7t-7 17v0v368q0 10 7 17t17 7h544q10 0 17 -7t7 -17v-105h-16v105v0q0 8 -8 8h-544q-8 0 -8 -8v0v-368q0 -8 8 -8h544q8 0 8 8v0v109h16v-109v0q0 -10 -7 -17t-17 -7zM968 76h-544q-10 0 -17 7t-7 17v0v109h16v-109q0 -8 8 -8h544q8 0 8 8v0v368
v0q0 8 -8 8h-544q-8 0 -8 -8v0v-105h-16v105q0 10 7 17t17 7h544q10 0 17 -7t7 -17v-368v0q0 -10 -7 -17t-17 -7z" />
    <glyph glyph-name="icon-lock" unicode="&#xe61d;" 
d="M770 -96h-516q-52 0 -89 38.5t-37 92.5v378q0 54 37 92.5t89 38.5h516q52 0 89 -38.5t37 -92.5v-378q0 -54 -37 -92.5t-89 -38.5zM254 480q-26 0 -44 -19.5t-18 -47.5v-378q0 -28 18 -47.5t44 -19.5h516q26 0 44 19.5t18 47.5v378q0 28 -18 47.5t-44 19.5h-516zM259 576
h-1q-13 0 -22.5 9.5t-9.5 22.5q0 2 1 4q12 108 94.5 180t193.5 72q110 0 192.5 -72t94.5 -180q1 -2 1 -4q0 -13 -9.5 -22.5t-22.5 -9.5t-22 8.5t-10 20.5q-10 83 -74 139t-150 56q-87 0 -151 -56t-74 -140q-1 -11 -10.5 -19.5t-20.5 -8.5zM512 90q-13 0 -22.5 9.5t-9.5 22.5
v192q0 13 9.5 22.5t22.5 9.5t22.5 -9.5t9.5 -22.5v-192q0 -13 -9.5 -22.5t-22.5 -9.5z" />
    <glyph glyph-name="icon-mail" unicode="&#xe61e;" 
d="M859 704h-694q-42 0 -71.5 -29.5t-29.5 -71.5v-470q0 -42 29.5 -71.5t71.5 -29.5h694q42 0 71.5 29.5t29.5 71.5v470q0 42 -29.5 71.5t-71.5 29.5zM859 96h-694v0q-15 0 -26 11t-11 26v470q0 15 11 26t26 11h685l-308 -280q-10 -11 -26 -10.5t-28 12.5l-245 207
q-9 7 -20 7q-14 0 -23 -9t-9 -23q0 -15 11 -24l242 -205q13 -12 34 -21t38 -9v0q42 0 71 29l309 281v-462q0 -15 -11 -26t-26 -11z" />
    <glyph glyph-name="icon-logo-sitegraph" unicode="&#xe61f;" 
d="M911 487q-8 18 -16 35q-1 0 -1.5 1t-0.5 2q-21 37 -63 37q-30 0 -51 -21v0q-27 -29 -54 -54q-97 -90 -213 -152v0v0q-116 62 -213 152q-27 25 -54 54v0q-21 21 -51 21q-42 0 -63 -37l-0.5 -1.5t-1.5 -1.5q-8 -17 -16 -35q-49 -117 -49 -244v-26v0q65 -10 130 -11v0v0h18
q154 0 300 46q146 -46 300 -46h18v0q65 1 130 11v0v26q0 127 -49 244zM231 235v0q4 72 24 139q74 -49 158 -85v0q-88 -36 -181 -54h-1zM611 289v0q84 36 158 85q20 -67 24 -139v0q-94 18 -182 54z" />
    <glyph glyph-name="icon-cross" unicode="&#xe620;" 
d="M602 384l371 371q20 19 20 46q0 26 -19 45t-45 19q-27 0 -46 -20l-371 -371l-371 371q-19 20 -46 20q-26 0 -45 -19t-19 -45q0 -27 20 -46l371 -371l-371 -371q-20 -19 -20 -46q0 -26 19 -45t45 -19q27 0 46 20l371 371l371 -371q19 -19 45 -19t45 19t19 45.5t-19 44.5z
" />
    <glyph glyph-name="icon-diamond" unicode="&#xe621;" 
d="M979 551l-161 291q-6 11 -19 11v0h-574q-13 0 -19 -11l-161 -291q-2 -5 -2 -10q0 -7 4 -13l448 -605l0.5 -0.5l0.5 -0.5q2 -2 5 -4l2 -1q1 0 1 -0.5t1 -0.5q3 -1 7 -1t7 1q1 0 1 0.5v0.5q1 0 2 0.5l1 0.5q3 2 5 4l0.5 0.5l0.5 0.5l448 605q4 6 4 13q0 5 -2 10zM935 542
l-7 -9h-182l-75 278h116zM284 491l156 -422l-312 422h156zM627 811l74 -278h-379l75 278h230zM695 491l-183 -494l-183 494h366zM740 491h156l-312 -422zM237 811h116l-75 -278h-182l-7 9z" />
    <glyph glyph-name="icon-dollar" unicode="&#xe622;" 
d="M639 384q13 0 22.5 9t9.5 22.5t-9.5 22.5t-22.5 9h-95v15l116 122q9 9 9 22t-9 23q-9 8 -22 8t-23 -9l-100 -106l-106 106q-9 9 -22 9t-22.5 -9t-9.5 -22t9 -22l116 -117v-20h-93q-12 -1 -21 -10t-9 -21.5t9 -21.5t21 -10h93v-63h-93q-13 0 -22.5 -9.5t-9.5 -22.5
t9.5 -22t22.5 -9h93v-94q0 -13 9.5 -22.5t22.5 -9.5t22.5 9.5t9.5 22.5v94h95q13 0 22.5 9t9.5 22t-9.5 22.5t-22.5 9.5h-95v63h95zM512 -89q-96 0 -183.5 37.5t-151 101t-101 151t-37.5 183.5t37.5 183.5t101 151t151 101t183.5 37.5t183.5 -37.5t151 -101t101 -151
t37.5 -183.5t-37.5 -183.5t-101 -151t-151 -101t-183.5 -37.5zM512 794q-111 0 -205.5 -55t-149.5 -149.5t-55 -205.5t55 -205.5t149.5 -149.5t205.5 -55t205.5 55t149.5 149.5t55 205.5t-55 205.5t-149.5 149.5t-205.5 55z" />
    <glyph glyph-name="icon-edit" unicode="&#xe623;" 
d="M939 629q21 22 20.5 54t-22.5 55l-73 72q-9 9 -24.5 16t-28.5 7t-28.5 -7t-24.5 -16l-82 -83l181 -181zM811 501l-181 181l-452 -452l181 -181zM132 184l-67 -249l248 69z" />
    <glyph glyph-name="icon-logo-sitetext" unicode="&#xe624;" 
d="M687 533v7h24l8 18h-32v42q0 9 -10 9h-47v-51h-33l8 -18h25v-179l-23 -4l-5 -20l112 19l5 20l-32 -5v162zM951 512h-116l90 80h1l1 2q3 2 3 6q0 8 -8 9h-1h-165l14 -18h70l-87 -82v0l-2 -2v0l-1 -1v0q-1 -2 -1 -5v0q0 -6 6 -8q1 0 1.5 -0.5t1.5 -0.5h0.5h0.5h21l-39 -156
h29q6 0 9 6v2l37 148h36l-38 -156h29q6 0 9 6v2l37 148h9h9v0h2v0q8 0 8 -8v-120v0v1l-1 -1v-1q-1 -6 -8 -7h-26l10 -20h59v0q9 0 9 9v0v159q-1 8 -9 8zM183 577l-11 24v1l-1 1q-2 4 -6 4h-49l15 -30h-67l12 -19h159l12 19h-64v0zM454 490h-71v50h60l11 18h-71v41v2
q-1 5 -6 6v0q-1 1 -2 1h-1v0h-48v-118h-50q-8 -1 -8 -9v-12v0v-113v0v-19h176h0.5h0.5h0.5h0.5q7 0 8 8v1v0v144zM404 364q0 -7 -7 -8h-79v105v0v0q0 8 8 8h68h10v0v-105zM124 536h-46l24 -157h46zM187 536l-24 -157h46l24 157h-46zM76 337h159l12 19h-183zM161.5 209
q-2.5 6 -8 9.5t-12.5 6.5t-16.5 5t-15.5 4q-5 2 -8 3l-2 2v3.5t1 4.5t3 3q3 1 6.5 2t7.5 1q18 0 18 -11l1 -4h25l-1 4q0 32 -44 32q-10 0 -17.5 -2.5t-13 -7t-8.5 -10.5t-3 -13q0 -8 2 -13.5t7 -9.5q5 -3 12 -6q7 -2 16.5 -4.5t15 -4t8.5 -3.5q2 -1 3 -2q1 -2 1 -5t-1.5 -5
t-3.5 -4t-6 -3t-9 -1q-22 0 -23 16v3h-25v-4q3 -36 48 -36q10 0 18 2.5t14 7.5t9.5 11.5t3.5 14.5t-2.5 14zM225 245h25v-85h-25v85zM225 288h25v-24h-25v24zM382 181v0h-4q0 -1 -4 -1h-1h-5h-1h-3q-2 0 -4 1l-1 1t-1 3q-1 3 -1 8v48h25v22h-25v25h-25v-25h-21v-22h21v-47
q0 -8 1 -14q0 -7 3 -11q4 -5 9 -8q6 -2 15 -2h7h4v0q7 1 9 1l2 1v20zM782 196q0 -4 -1.5 -7t-4.5 -5t-6.5 -3t-6.5 -1v0q-6 0 -11 2.5t-8.5 6.5t-5.5 11t-2 16.5t2 16.5t5.5 11.5t8.5 6.5t11 2q4 0 7 -1q4 -1 6.5 -3t4 -5t1.5 -7v-3h26v4q-2 8 -5.5 15t-9.5 12t-14 7t-16 2
q-12 0 -21.5 -4t-16.5 -11.5t-10.5 -18t-3.5 -24t3.5 -24t10.5 -18t16.5 -11.5t21.5 -4q8 0 16 2.5t14 7t9.5 11t5.5 15.5v4h-26v-3zM922 274q-10 0 -18 -4q-5 -3 -10 -7v9h-25v-111h25v77q13 14 25 14q5 0 8 -1q2 -1 4 -3t3 -6t1 -10v-71h25v71q0 42 -38 42zM616 192h26
v-27h-26v27zM547 217q0 13 -3.5 23.5t-10.5 18t-16.5 11.5t-21 4t-21 -4t-16.5 -11.5t-11 -18t-4 -23.5q0 -14 4 -24.5t11.5 -18t17 -11.5t21.5 -4q10 0 18 2.5t14.5 7t10.5 11.5q1 2 3 5l2 5h-27l-1 -1q-2 -3 -4 -4q-3 -3 -7 -4q-10 -2 -19 1q-5 2 -8.5 6t-6.5 10
q-1 5 -2 11h77v8zM470 230q1 5 3 8q2 5 5.5 8.5t7.5 5t9 1.5t9.5 -1.5t7.5 -5t6 -8.5l2 -8h-50z" />
    <glyph glyph-name="icon-edit2" unicode="&#xe625;" 
d="M605 -67h-435q-10 0 -19.5 9.5t-9.5 19.5v844q0 10 9.5 19.5t19.5 9.5h668q9 0 19 -11.5t10 -23.5v-574v-1q0 -6 4 -10t10 -4t10.5 4t4.5 10v1v574q0 23 -18 43.5t-40 20.5h-668q-22 0 -40 -18t-18 -40v-844q0 -22 18 -40t40 -18h435q6 0 10.5 4.5t4.5 10.5t-4.5 10
t-10.5 4zM736 486h-464q-6 0 -10.5 -4.5t-4.5 -10.5t4.5 -10t10.5 -4h464v0q6 0 10.5 4t4.5 10v0v0q0 6 -4.5 10.5t-10.5 4.5zM751 282v0q0 6 -4.5 10.5t-10.5 4.5h-464q-6 0 -10.5 -4.5t-4.5 -10.5t4.5 -10t10.5 -4h464v0q6 0 10.5 4t4.5 10v0zM272 122q-6 0 -10.5 -4
t-4.5 -10t4.5 -10.5t10.5 -4.5h246q6 0 10.5 4.5t4.5 10.5t-4.5 10t-10.5 4h-246zM736 660h-464q-6 0 -10.5 -4t-4.5 -10t4.5 -10.5t10.5 -4.5h464q6 0 10.5 4.5t4.5 10.5t-4.5 10t-10.5 4zM897 49h-88v89v1q0 6 -4.5 10t-10.5 4t-10 -4t-4 -10v-1v-89h-87q-6 0 -10 -4
t-4 -10t4 -10.5t10 -4.5h87v-86v-1q0 -6 4 -10.5t10 -4.5t10.5 4.5t4.5 10.5v1v86h88q7 0 11 4.5t4 10.5t-4 10t-11 4z" />
    <glyph glyph-name="icon-downtime" unicode="&#xe626;" 
d="M619 569v33q0 10 -7 16.5t-16 6.5h-61v45q0 9 -7 16t-16 7t-16 -7t-7 -16v-45h-61q-9 0 -16 -6.5t-7 -16.5v-33q-96 -34 -157 -118t-61 -189q0 -88 43.5 -163t118.5 -118.5t163 -43.5t163 43.5t118.5 118.5t43.5 163q0 105 -61 189t-157 118zM512 -2q-109 0 -186.5 77.5
t-77.5 186.5t77.5 186.5t186.5 77.5t186.5 -77.5t77.5 -186.5t-77.5 -186.5t-186.5 -77.5zM671 273h-129v129q0 12 -9 21t-21 9t-21 -9t-9 -21v-159q0 -12 9 -21t21 -9h159q12 0 21 9t9 21.5t-9 21t-21 8.5zM512 747q6 0 10.5 4.5t4.5 10.5v54q0 6 -4.5 10.5t-10.5 4.5
t-10.5 -4.5t-4.5 -10.5v-54q0 -6 4.5 -10.5t10.5 -4.5zM432 723q4 -5 10 -5v0q6 0 11 5q11 10 0 21l-38 38q-11 10 -21.5 -0.5t0.5 -21.5zM360 648h53q6 0 10.5 4.5t4.5 11t-4.5 11t-10.5 4.5h-53q-6 0 -10.5 -4.5t-4.5 -11t4.5 -11t10.5 -4.5zM596 663.5q0 -6.5 4 -11
t11 -4.5h53q6 0 10.5 4.5t4.5 11t-4.5 11t-10.5 4.5h-53q-7 0 -11 -4.5t-4 -11zM582 718q6 0 10 5l38 37q11 11 0.5 21.5t-21.5 0.5l-38 -38q-11 -11 0 -21q5 -5 11 -5v0z" />
    <glyph glyph-name="icon-eye" unicode="&#xe627;" 
d="M992 384q0 9 -1 11q-1 6 -2 11q-1 1 -1 2l-2 4q-66 145 -197 234.5t-277 89.5t-277 -89t-197 -234q-1 -2 -2 -5l-1 -2q-1 -3 -1 -8l-2 -11v-3v-3q1 -7 1 -8q0 -2 1 -7l2 -6t2 -4q66 -145 197 -234.5t277 -89.5t277 89t196 233q2 3 3 7l1 1q1 4 1 9v0q2 7 2 13zM927 382
v-1v-0.5v-0.5q-59 -128 -173.5 -206t-241.5 -78t-241 78t-174 206v2l-0.5 0.5l-0.5 0.5v1v1q1 1 1 2v1q59 128 173.5 206t241.5 78t241.5 -78t173.5 -206v-0.5v-0.5q0 -2 1 -4q-1 0 -1 -1zM512 544q-66 0 -113 -47t-47 -113t47 -113t113 -47t113 47t47 113t-47 113t-113 47z
M512 288q-40 0 -68 28t-28 68t28 68t68 28t68 -28t28 -68t-28 -68t-68 -28z" />
    <glyph glyph-name="icon-file" unicode="&#xe628;" 
d="M480 523q-9 0 -17 -6.5t-10 -15.5q-1 -4 -1 -8q0 -8 4 -15q6 -11 18 -14l225 -57q3 -1 7 -1q10 0 18.5 6.5t10.5 15.5q1 4 1 8q0 8 -4 15q-7 11 -19 14l-224 58h-7h-2zM955 730q-7 10 -19 13l-469 88q-2 1 -5 1q-8 0 -16.5 -5.5t-11.5 -13.5l-165 -436q-2 -5 -2 -11
t3 -12q3 -8 11 -13t16 -5v0q9 0 17 5.5t11 13.5l156 413l413 -79q-53 -233 -130 -423q-50 -125 -98 -194q-54 -76 -99 -76q-3 0 -5 1q-29 3 -41 21q-9 14 -10.5 37.5t1.5 43t8 35.5q1 5 1 9q0 18 -15 27q-293 170 -360 204q-13 7 -28 7q-16 0 -29 -10v0q-31 -24 -24 -110
q4 -48 18 -107q3 -13 14 -19l297 -173q7 -4 15 -4v0q17 0 26 16q4 7 4 14q0 5 -1 8q-4 13 -14 19l-286 165q-10 45 -14 91q-2 31 1 46q72 -38 332 -188q-20 -92 14 -144q28 -43 85 -48v0q5 -1 11 -1q42 0 84 33q36 28 72 81q61 89 118 246q71 190 118 410q1 4 1 7q0 9 -5 17
zM423 381q-10 0 -17.5 -7t-10.5 -16v-7q0 -9 6.5 -18t15.5 -11l224 -57q4 -1 8 -1q10 0 18.5 6.5t10.5 15.5q1 4 1 8q0 10 -7 18.5t-16 10.5l-224 57q-4 1 -8 1h-1zM531 603l225 -58q3 -1 7 -1h2q9 1 17 7.5t10 15.5q1 4 1 8q0 8 -4 15q-6 11 -19 14l-224 57q-4 1 -8 1h-1
q-4 1 -8 1q-12 0 -21 -9t-9 -21.5t9 -21t21 -8.5h2z" />
    <glyph glyph-name="icon-mobile" unicode="&#xe629;" 
d="M769 832h-577q-27 0 -45.5 -18.5t-18.5 -45.5v-767q0 -27 18.5 -45.5t45.5 -18.5h577q26 0 45 18.5t19 45.5v767q0 27 -19 45.5t-45 18.5v0zM769 768v-639h-577v639h577zM449 1h-257v64h257v-64zM513 1v64h256v-64h-256v0z" />
    <glyph glyph-name="icon-money" unicode="&#xe62a;" 
d="M512 853q-95 0 -182 -37t-150 -100t-100 -150t-37 -182t37 -182t100 -150t150 -100t182 -37t182 37t150 100t100 150t37 182t-37 182t-100 150t-150 100t-182 37zM408 673l1 1q53 11 98 11q13 0 28 -1t26.5 -2.5t22 -3t15.5 -3.5l6 -1v-1q11 -4 11 -15v0q0 -1 -1 -4l1 -1
l-5 -6v-1l-39 -48h-131l-38 48q-1 0 -1 0.5v0.5l-4 6v1v4v0q0 11 10 15zM512 86q-132 0 -194 52.5t-62 153.5q0 82 55.5 158t134.5 103h132q79 -27 134.5 -103t55.5 -158q0 -101 -62 -153.5t-194 -52.5zM583 297v0h-44v43h44q9 0 15.5 6.5t6.5 15t-6.5 15t-15.5 6.5h-44
l51 53q10 11 -4 25q-6 7 -15 8t-14 -5l-45 -47l-47 48q-5 5 -12.5 3.5t-14 -8t-8 -14t3.5 -12.5l49 -51h-42v0q-9 0 -15.5 -6t-6.5 -15t6.5 -15.5t15.5 -6.5h44v-43h-44v0q-9 0 -15.5 -6.5t-6.5 -15.5t6.5 -15.5t15.5 -6.5h44v-12q0 -11 8 -19t19 -8t19 8t8 19v0v12h44
q9 0 15.5 6.5t6.5 15.5t-6.5 15.5t-15.5 6.5z" />
    <glyph glyph-name="icon-pen" unicode="&#xe62b;" 
d="M512 561l-2 4l-76 141l-28 54q-9 16 -28.5 28t-38 12t-38 -12t-28.5 -28l-25 -49q-3 -3 -4 -6q0 -1 -1 -2l-69 -135l-1 -2q-2 -2 -2 -5v-3v-1v-621q0 -9 6 -15t15 -6t15 6t6 15v580q20 -9 42 -9t46.5 12.5t37.5 29.5q13 -17 37.5 -29.5t46.5 -12.5v0q26 0 47 9v-580
q0 -9 6 -15t15 -6v0q9 0 15 6t6 15v623v2zM255 550q-20 0 -37 12l56 110q31 -8 64 -8q32 0 65 8l62 -110q-18 -12 -42 -12q-26 0 -44 18.5t-18 44.5q-1 8 -7 14t-14.5 6t-14.5 -6t-7 -14v-1q0 -26 -18.5 -44t-44.5 -18zM339 757q20 0 29 -17l15 -29q-44 -9 -88 0l15 29
q4 7 12.5 12t16.5 5v0zM177 559zM851 558v4q11 23 11 50q0 22 -8 60t-22 79.5t-37.5 71.5t-48.5 30q-28 0 -51.5 -30.5t-37 -72.5t-21 -80t-7.5 -58q0 -26 12 -50q-1 -2 -1 -3l-42 -622q-1 -9 5 -15q7 -7 16 -7q8 0 14.5 5.5t6.5 14.5l40 581q29 -20 65.5 -19.5t65.5 19.5
l42 -581q0 -8 6.5 -14t14.5 -6v0h1q9 0 15 6t6 15v1zM745.5 538q-30.5 0 -52 22t-21.5 52q0 47 26.5 123t47 76t47.5 -76t27 -123q0 -30 -22 -52t-52.5 -22z" />
    <glyph glyph-name="icon-material" unicode="&#xe62c;" 
d="M512 341q-4 0 -8 2l-448 192q-13 6 -13 20t13 19l448 192q4 2 8 2t8 -2l448 -192q13 -5 13 -19t-13 -20l-448 -192q-4 -2 -8 -2zM118 555l394 -169l394 169l-394 168zM512 160q-4 0 -8 2l-448 192q-13 6 -13 20t13 19l106 46q4 2 8 2q9 0 15 -6.5t6 -15.5q0 -14 -12 -19
l-61 -26l394 -169l394 169l-61 26q-13 6 -13 19q0 9 6.5 15.5t14.5 6.5q5 0 9 -2l106 -46q13 -5 13 -19t-13 -20l-448 -192q-4 -2 -8 -2v0zM512 -21q-4 0 -8 1l-448 192q-13 6 -13 20t13 20l106 45q3 1 7 1q9 0 15 -6t6 -15q0 -13 -12 -19l-60 -26l394 -169l394 169l-61 26
q-12 6 -12 19q0 9 6 15.5t15 6.5q4 0 8 -2l106 -45q13 -6 13 -20t-13 -20l-448 -192q-4 -1 -8 -1z" />
    <glyph glyph-name="icon-medal" unicode="&#xe62d;" 
d="M665 419l85 109q4 5 4 12q0 3 -1 6q-3 11 -13 14l-134 38l-78 114q-6 9 -17 9t-17 -9l-77 -114l-134 -38q-10 -3 -14 -13q-1 -3 -1 -7q0 -6 4 -12l86 -109l-5 -138v-1q0 -10 9 -16q5 -4 12 -4q3 0 7 2l130 47l131 -47q3 -2 7 -2v0h1v0q8 0 14 6t6 15q0 3 -1 6zM612 445
q-4 -5 -4 -11v0l3 -100l-94 34q-3 1 -6 1t-6 -1l-94 -34l4 100v0q0 6 -4 11l-62 78l97 28q6 1 9 7l56 82l56 -82q4 -5 10 -7l96 -28zM989 46l-127 217q22 38 38 96.5t16 103.5q0 108 -54 200.5t-147.5 146.5t-203.5 54t-203 -54t-147.5 -146.5t-54.5 -200.5t55 -201
l-126 -216q-3 -4 -3 -10q0 -4 2 -8q5 -10 15 -11l122 -18l76 -88q6 -7 16 -7h1q11 1 16 10l103 168q62 -21 128 -21t129 21l104 -168q5 -9 16 -10h1q9 0 16 7l76 88l122 18q10 1 15 11q2 4 2 8q0 6 -3 10zM824 208l78 -135l-78 -9q-5 -1 -9 -6l-48 -57l-65 108
q29 15 65 44.5t57 54.5zM257 1l-48 57q-4 5 -10 6l-78 9l78 134q21 -25 57 -54.5t66 -44.5zM174 462.5q0 90.5 45 167.5t123 122t169.5 45t169 -45t122.5 -122t45 -167.5t-45 -167.5t-122.5 -122t-169 -45t-169.5 45t-123 122t-45 167.5z" />
    <glyph glyph-name="icon-people2" unicode="&#xe62e;" 
d="M873 21h-722q-45 0 -76.5 32t-31.5 76v510q0 44 31.5 76t76.5 32h722q45 0 76.5 -32t31.5 -76v-510q0 -44 -31.5 -76t-76.5 -32zM151 704q-27 0 -46.5 -19t-19.5 -46v-510q0 -27 19.5 -46t46.5 -19h722q27 0 46.5 19t19.5 46v510q0 27 -19.5 46t-46.5 19h-722zM362.5 299
q-61.5 0 -105.5 43.5t-44 105.5t44 105.5t105.5 43.5t105.5 -43.5t44 -105.5t-44 -105.5t-105.5 -43.5zM363 555q-44 0 -75.5 -31.5t-31.5 -75.5t31.5 -75.5t75.5 -31.5t75 31.5t31 75.5t-31 75.5t-75 31.5zM606 21q-7 0 -13 5t-7 11q-19 73 -85.5 124.5t-142.5 51.5v0
q-72 0 -138 -49t-87 -118q-5 -15 -20 -15q-9 0 -15 6.5t-6 15.5v5q25 81 103 139.5t163 58.5v0q89 0 168 -61t101 -147q1 -3 1 -5q0 -9 -6.5 -15.5t-15.5 -6.5zM875 555h-256q-9 0 -15.5 6t-6.5 15t6.5 15t15.5 6h256q8 0 14.5 -6t6.5 -15t-6.5 -15t-14.5 -6zM875 384h-256
q-9 0 -15.5 6.5t-6.5 15t6.5 15t15.5 6.5h256q8 0 14.5 -6.5t6.5 -15t-6.5 -15t-14.5 -6.5zM747 213h-128q-9 0 -15.5 6.5t-6.5 15t6.5 15t15.5 6.5h128q8 0 14.5 -6.5t6.5 -15t-6.5 -15t-14.5 -6.5z" />
    <glyph glyph-name="icon-people" unicode="&#xe62f;" 
d="M160 -32v0q-13 0 -22.5 9.5t-9.5 22.5q0 18 15 27q17 11 43 25.5t88.5 38.5t109.5 27v0v18q-91 37 -145.5 124.5t-54.5 195.5q0 93 44 172.5t118.5 125.5t163 46t163.5 -46t118.5 -125.5t43.5 -172.5q0 -108 -52.5 -194t-142.5 -124v-21q47 -4 109 -28t88.5 -38t42.5 -24
q16 -9 16 -27q0 -13 -9.5 -22.5t-22.5 -9.5q-9 0 -16 4q-131 76 -215 82h-25q-13 0 -22.5 9.5t-9.5 22.5v74q0 23 22 30q79 27 126 99.5t47 166.5q0 116 -76.5 198t-184.5 82t-185 -82t-77 -198q0 -94 49 -168t129 -100q9 -3 15.5 -11.5t6.5 -18.5v0v-72q0 -14 -9.5 -23
t-22.5 -9h-31q-38 -2 -93.5 -24.5t-77.5 -35t-37 -21.5q-8 -5 -17 -5z" />
    <glyph glyph-name="icon-plan" unicode="&#xe630;" 
d="M831 766.5q-65 65.5 -157.5 65.5t-157.5 -65q-27 -27 -46.5 -73.5t-19.5 -84.5v-1q0 -13 9.5 -22.5t22.5 -9.5h98q13 0 22.5 9.5t9.5 22.5v0q0 26 18 44q16 16 43 16t44 -16q18 -18 18 -43.5t-18 -43.5t-44 -18v0q-13 0 -22 -9.5t-9 -22.5v0v-99q0 -13 9 -22.5t22 -9.5h3
l-281 -281q-4 15 -14.5 34t-21.5 31q-17 16 -44.5 27.5t-50.5 11.5q-13 0 -25 -2l191 476q3 5 3 12q0 6 -3 12q-3 8 -11.5 13.5t-17.5 5.5q-22 0 -30 -20l-237 -589q-1 -3 -3.5 -20t-2.5 -23q0 -56 40 -96q16 -17 44 -28.5t51 -11.5v0v0q24 0 51.5 11.5t44.5 28.5l472 474
q27 27 46 73t19 84v1q0 93 -65 158.5zM762 697q-36 36 -88.5 36t-88.5 -36q-24 -24 -32 -57h-36q4 20 17 43.5t27 37.5q19 20 52 33.5t60 13.5v0q66 0 113 -47q19 -19 32.5 -52t13.5 -60v-1v0q0 -54 -37 -100t-90 -56v35q33 9 57 33q15 15 25.5 41t10.5 47.5t-10.5 47.5
t-25.5 41zM335 72v0q0 -13 -6.5 -27.5t-14.5 -23.5q-19 -19 -50.5 -19t-50.5 19q-9 9 -15 23.5t-6 27.5v0q0 29 21 51q8 8 23 14.5t27 6.5v0q30 0 51 -21q21 -22 21 -51z" />
    <glyph glyph-name="icon-question" unicode="&#xe631;" 
d="M832 768h-640q-40 0 -68 -28t-28 -68v-480v0q0 -40 28 -68t68 -28h210l87 -87q10 -9 23 -9t23 9l86 87h211q40 0 68 28t28 68v480q0 40 -28 68t-68 28zM864 192q0 -13 -9.5 -22.5t-22.5 -9.5h-224v0q-13 0 -23 -9l-73 -74l-74 74q-9 9 -22 9h-1v0h-1h-222
q-13 0 -22.5 9.5t-9.5 22.5v480q0 13 9.5 22.5t22.5 9.5h640q13 0 22.5 -9.5t9.5 -22.5v-480zM512 239zM464 239q0 -20 14 -34t34 -14t34 14t14 34t-14 34t-34 14t-34 -14t-14 -34zM512.5 320q-13.5 0 -23 9t-9.5 23v13q0 18 9.5 35t18 25.5t25.5 22.5q23 20 33 33t10 30
q0 3 -0.5 8t-4 16t-9.5 19t-19 15t-31 7q-16 0 -29 -7t-19.5 -16t-10.5 -19.5t-5 -16t-1 -6.5q0 -13 -9.5 -22.5t-22.5 -9.5t-22.5 9.5t-9.5 22.5q0 17 7 37.5t21 41.5t40.5 35.5t60.5 14.5q33 0 59 -13t40 -33t21.5 -41.5t7.5 -41.5q0 -26 -12 -49.5t-23 -34.5t-31 -27
q-30 -26 -30 -35v-13q0 -14 -9 -23t-22.5 -9z" />
    <glyph glyph-name="icon-question2" unicode="&#xe632;" 
d="M464 112q0 -20 14 -34t34 -14t34 14t14 34t-14 34t-34 14t-34 -14t-14 -34zM512 -64q-185 0 -316.5 131.5t-131.5 316.5t131.5 316.5t316.5 131.5t316.5 -131.5t131.5 -316.5t-131.5 -316.5t-316.5 -131.5zM512 768q-104 0 -192.5 -51.5t-140 -140t-51.5 -192.5
t51.5 -192.5t140 -140t192.5 -51.5t192.5 51.5t140 140t51.5 192.5t-51.5 192.5t-140 140t-192.5 51.5zM512 222q-13 0 -22.5 9.5t-9.5 22.5v54q0 25 13 50t25.5 39.5t36.5 38.5q18 18 26.5 27t17.5 23t9 24q0 40 -28 68.5t-68 28.5t-68 -27.5t-28 -67.5q0 -13 -9.5 -22.5
t-22.5 -9.5t-22.5 9.5t-9.5 22.5q0 66 47 112.5t113 46.5t113 -47t47 -114q0 -22 -12 -45.5t-24 -37t-35 -36.5q-19 -19 -28.5 -29t-19 -26t-9.5 -28v-54q0 -13 -9.5 -22.5t-22.5 -9.5z" />
    <glyph glyph-name="icon-reflesh" unicode="&#xe633;" 
d="M981 444h-85q-22 141 -130.5 235.5t-253.5 94.5q-111 0 -204 -57.5t-143 -152.5v0q-2 -5 -2 -10q0 -12 9 -21t21 -9q8 0 16 5t11 13v0q44 78 121.5 125t170.5 47q120 0 211 -77t113 -193h-102q-1 -1 -3 -2q-7 -8 -8.5 -12t6.5 -16l113 -114q7 -7 16.5 -7t16.5 7l112 114
q14 13 -6 30zM817 224v0q-9 0 -18 -6.5t-11 -15.5v0q-46 -68 -118.5 -108t-157.5 -40q-104 0 -197 70.5t-122 169.5h98q17 17 5 30l-113 114q-7 7 -16.5 7t-16.5 -7l-111 -114q-8 -12 -7 -16t9 -12q2 -1 2 -2h90q30 -124 141 -212t238 -88h1q103 0 190 49t140 134v1l2 2v0
q3 6 3 13q0 13 -9 22t-22 9z" />
    <glyph glyph-name="icon-rocket" unicode="&#xe634;" 
d="M942 747q-4 -113 -48 -228q-53 -137 -154 -230q-7 -5 -7 -15q0 -1 1 -3q1 -11 3 -35t4 -36q8 -84 -59 -132q-37 -27 -146 -98q-24 -16 -47 -4.5t-26 39.5q-6 63 -10 127q-1 16 -3.5 19t-17.5 5q-84 11 -127 80q-21 33 -25 79q-1 10 -12 11q-66 3 -132 8q-28 2 -39.5 25.5
t3.5 48.5q6 10 13 21t16 24.5t14 21.5q7 11 22.5 35.5t23.5 36.5q43 68 120 68q12 1 90 -8q8 -1 13 5q97 108 251 164q82 29 169 38q52 6 87 -1q12 -2 14.5 -4.5t4.5 -14.5q5 -29 4 -47v0zM804 552q1 51 -35 88.5t-86 38.5q-53 1 -91 -34.5t-40 -92.5q-1 -49 37 -87t87 -38
h2q52 0 89 36.5t37 88.5v0zM215 267q18 0 25 -19q28 -78 100 -119q16 -9 34 -14q16 -6 19 -19t-8.5 -24.5t-35 -34.5t-34.5 -35q-13 -12 -27 -7q-16 6 -16 23q-1 4 -1 11.5v10.5q0 9 -1.5 10.5t-10.5 -1.5q-13 -5 -39 -13.5t-39 -12.5t-22 1q-18 10 -11 30q5 16 15 46t11 34
q3 8 2 10t-10 2h-9.5h-13.5q-17 1 -23 16q-5 15 6 26q20 20 72 73q8 7 17 6zM215 267z" />
    <glyph glyph-name="icon-remit" unicode="&#xe635;" 
d="M512 864q-98 0 -186.5 -38t-153 -102.5t-102.5 -153t-38 -186.5t38 -186.5t102.5 -153t153 -102.5t186.5 -38t186.5 38t153 102.5t102.5 153t38 186.5t-38 186.5t-102.5 153t-153 102.5t-186.5 38zM512 -54q-89 0 -170 35t-139.5 93.5t-93.5 139.5t-35 170t35 170
t93.5 139.5t139.5 93.5t170 35t170 -35t139.5 -93.5t93.5 -139.5t35 -170t-35 -170t-93.5 -139.5t-139.5 -93.5t-170 -35zM298 491l-3 1l-26 -35l3 -1q45 -30 87 -64l2 -2l2 2q13 18 26 34l1 2l-2 2q-44 32 -90 61zM348 351l-3 1l-1 -3q-21 -88 -56 -172l-1 -2l47 -22l1 3
q28 87 54 173l1 3l-3 1q-20 8 -39 18zM477 211v338h262v42h-308v-422h314v42h-268zM320 613l-2 2l-27 -32l2 -2q43 -32 83 -67l2 -2l2 2q14 17 26 32l2 2l-2 2q-42 33 -86 63z" />
    <glyph glyph-name="icon-setting" unicode="&#xe636;" 
d="M944 470q-4 21 -16 33.5t-28 12.5h-4q-44 0 -75.5 31t-31.5 75q0 20 10 41q4 11 4 23t-7 25.5t-17 20.5l-110 62l-2 1q-16 7 -36 3t-32 -17q-15 -15 -39.5 -31t-45.5 -16q-20 0 -45 16.5t-39 31.5q-13 13 -32.5 17t-36.5 -3l-114 -62l-2 -2q-10 -7 -17 -20.5t-7 -25.5
t4 -23q10 -22 10 -41q0 -44 -31.5 -75t-75.5 -31h-4q-16 0 -28 -12.5t-16 -33.5q-9 -48 -9 -86q0 -44 9 -87q4 -20 16 -32.5t28 -12.5h4q44 0 75.5 -31.5t31.5 -75.5q0 -19 -10 -40q-4 -11 -4 -23t7 -26t17 -21l108 -61h2q16 -8 36 -3.5t33 17.5q15 17 40.5 33.5t45.5 16.5
q21 0 46.5 -17.5t39.5 -33.5q18 -20 46 -20q12 0 23 5l112 62l2 1q17 11 22.5 31t-2.5 39q-10 21 -10 40q0 44 31.5 75.5t75.5 31.5h4q16 0 28 12.5t16 32.5q9 46 9 87q0 43 -9 86zM889 384q0 -27 -7 -69q-65 -5 -111 -55t-46 -115v0q0 -28 13 -60l-96 -53q-18 18 -38 33
q-50 37 -94 37t-94 -36q-20 -15 -38 -33l-92 52q13 31 13 60v0q0 65 -46 115t-111 55q-7 42 -7 69t7 68q65 6 111 55.5t46 114.5v0q0 29 -13 60l98 54q17 -17 38 -31q49 -35 92 -35t92 34q26 18 37 31l94 -53q-12 -31 -12 -60v0q0 -65 46 -114.5t111 -55.5q7 -40 7 -68z
M510 541q-65 0 -111 -46t-46 -111t46 -111t111 -46t111 46t46 111t-46 111t-111 46zM510 291q-38 0 -65.5 27.5t-27.5 66t27.5 65.5t65.5 27t65.5 -27t27.5 -65.5t-27.5 -66t-65.5 -27.5z" />
    <glyph glyph-name="icon-shen" unicode="&#xe637;" 
d="M512 733q-95 0 -175 -47t-127 -127t-47 -175t47 -175t127 -127t175 -47t175 47t127 127t47 175t-47 175t-127 127t-175 47zM512 80q-126 0 -215 89t-89 215t89 215t215 89t215 -89t89 -215t-89 -215t-215 -89zM432 829h160v-45h-160v45zM342 755l-27 37l-130 -95l27 -36z
M64 445l43 -14l49 153l-43 14zM64 323l49 -153l43 14l-49 153zM212 108l130 -95l-27 -36l-130 94zM432 -16h160v-45h-160v45zM812 108l27 -37l-130 -94l-26 36zM917 337l-49 -153l43 -14l49 153zM960 445l-49 153l-43 -14l49 -153zM839 697l-130 95l-27 -37l130 -94z
M415 531q-14 27 -34 58l-29 -14q17 -28 32 -60zM448 504h-137v-30h102q-41 -78 -104 -129q6 -20 11 -37q26 24 50 50v-187h31v226q26 35 47 76v31zM424 393l-21 -19q19 -20 41 -47l24 21q-19 21 -44 45zM605 587h-32v-71h-104v-243h31v18h73v-120h32v120h73v-18h31v243h-104
v71zM573 321h-73v69h73v-69zM573 418h-73v69h73v-69zM678 321h-73v69h73v-69zM678 487v-69h-73v69h73z" />
    <glyph glyph-name="icon-talk2" unicode="&#xe638;" 
d="M512 864q-98 0 -186.5 -33.5t-153 -89.5t-102.5 -134t-38 -163q0 -98 48 -183.5t132 -144.5v-212l210 127q47 -7 90 -7q130 0 240.5 56t175 153t64.5 211t-64 211t-175 153t-241 56zM272 384q-25 0 -42.5 17.5t-17.5 42.5t17.5 42.5t42.5 17.5v0q25 0 42.5 -17.5
t17.5 -42.5t-17.5 -42.5t-42.5 -17.5v0zM512 384q-25 0 -42.5 17.5t-17.5 42.5t17.5 42.5t42.5 17.5v0q25 0 42.5 -17.5t17.5 -42.5t-17.5 -42.5t-42.5 -17.5v0zM752 384q-25 0 -42.5 17.5t-17.5 42.5t17.5 42.5t42.5 17.5t42.5 -17.5t17.5 -42.5t-17.5 -42.5t-42.5 -17.5z
" />
    <glyph glyph-name="icon-talk" unicode="&#xe639;" 
d="M461 427q0 -23 15.5 -39.5t37 -16.5t37 16.5t15.5 39.5t-15.5 39.5t-37 16.5t-37 -16.5t-15.5 -39.5zM275 427q0 -23 15.5 -39.5t37.5 -16.5t37.5 16.5t15.5 39.5t-15.5 39.5t-37.5 16.5t-37.5 -16.5t-15.5 -39.5zM646 427q0 -23 15.5 -39.5t37.5 -16.5t37.5 16.5
t15.5 39.5t-15.5 39.5t-37.5 16.5t-37.5 -16.5t-15.5 -39.5zM870 706q-67 68 -160 105t-196 37q-128 0 -237 -55.5t-172 -151t-63 -207.5q0 -152 96.5 -263.5t254.5 -141.5q7 -4 37 -42q29 -36 45.5 -51.5t34.5 -15.5t34.5 14.5t48.5 52.5q9 10 16 18.5t10.5 12.5t6.5 7
l3.5 3.5l0.5 0.5q158 29 255 140.5t97 264.5q1 75 -28 145.5t-84 126.5zM925 440q-3 -130 -85.5 -222t-218.5 -116q-16 -2 -29 -15t-43 -51q-17 -20 -35 -39l-4 4q-6 6 -25 31q-33 42 -46.5 55t-29.5 15q-135 23 -217.5 116.5t-82.5 221.5q0 93 54.5 172.5t148.5 125.5
t204.5 46t204.5 -46t149 -125.5t55 -172.5z" />
    <glyph glyph-name="icon-tel" unicode="&#xe63a;" 
d="M218 860l145 -185l1 -3q10 -14 15 -30q4 -18 2 -36q-3 -18 -13 -34l-1 -3q-8 -13 -23 -24l-3 -2l-96 -77q-12 -29 9 -61q46 -65 130 -149q83 -83 150 -129q31 -22 60 -10l79 99v0q12 16 27 25h-1q18 10 35 12h1q20 2 36 -3h2q16 -5 30 -15l186 -145l3 -2q14 -13 22 -28v0
q9 -18 10 -38t-7 -39q-7 -18 -22 -33q-21 -19 -44 -33l-3 -1q-25 -15 -60 -27q-49 -16 -101 -16.5t-95.5 9.5t-102.5 30q-74 24 -150.5 85.5t-163.5 149.5q-56 55 -94 97t-81 103.5t-60 112.5q-20 60 -29.5 103t-9.5 95.5t16 101.5q9 29 28 62v0v0q14 24 34 45q13 15 32 22
l3 1q17 7 36 6t38 -10l2 -1z" />
    <glyph glyph-name="icon-tick" unicode="&#xe63b;" 
d="M393.5 53q-26.5 0 -44.5 19l-298 298q-20 18 -20 46q0 26 19 45t45 19q27 0 46 -20l253 -253l489 489q19 20 46 20q26 0 45 -19t19 -45q0 -27 -20 -46l-534 -534q-19 -19 -45.5 -19z" />
    <glyph glyph-name="icon-shen-big" unicode="&#xe63c;" 
d="M913 383.5q0 21.5 -2 44.5l45 36l-14 44l-44 -14q-4 16 -9 28l44 14l-15 45l-57 2q-23 39 -52 71l15 56l-37 27l-27 -37q-13 10 -24 17l27 37l-38 28l-48 -32q-41 18 -84 27l-20 54h-46v-46h-15h-15v46h-46l-20 -54q-43 -9 -84 -27l-48 32l-38 -28l27 -37q-11 -7 -24 -17
l-27 37l-38 -27l16 -56q-29 -32 -52 -71l-57 -2l-15 -45l44 -14q-5 -12 -9 -28l-44 14l-14 -44l45 -36q-2 -22 -2 -44t2 -44l-45 -36l14 -44l44 14q4 -16 9 -28l-44 -14l15 -45l57 -2q23 -39 52 -71l-15 -56l37 -27l27 37q13 -10 24 -17l-27 -37l38 -28l48 32q41 -18 84 -27
l20 -54h46v46h15h15v-46h46l20 54q43 9 84 27l48 -32l38 28l-27 37q11 7 24 17l27 -37l38 27l-16 56q29 32 52 71l57 2l15 45l-44 14q5 12 9 28l44 -14l14 44l-45 36q2 22 2 43.5zM512 75q-128 0 -218.5 90.5t-90.5 218.5t90.5 218.5t218.5 90.5t218.5 -90.5t90.5 -218.5
t-90.5 -218.5t-218.5 -90.5zM401 557q-15 29 -36 63l-32 -16q19 -30 35 -64zM436 529h-146v-33h109q-44 -83 -112 -138q7 -21 12 -39q28 25 53 53v-199h34v241q28 38 50 81v34zM603 617h-33v-76h-111v-259h33v19h78v-128h33v128h79v-19h33v259h-112v76zM570 333h-78v73h78
v-73zM570 437h-78v73h78v-73zM682 333h-79v73h79v-73zM682 510v-73h-79v73h79zM410 409l-22 -20q20 -21 44 -50l25 23q-20 22 -47 47z" />
    <glyph glyph-name="icon-upload" unicode="&#xe63d;" 
d="M512 158q7 0 11.5 5t4.5 11v566l201 -196q4 -5 10 -5t10 5q11 12 0 23l-230 222l-12 11l-11 -11l-230 -222q-5 -5 -5 -12q0 -6 4.5 -10.5t12.5 -5t13 4.5l205 196v-566v0q0 -6 4.5 -11t11.5 -5zM928 167v-199h-832v199q0 7 4.5 11.5t11.5 4.5t11.5 -4.5t4.5 -11.5v-167
h768v167q0 7 4.5 11.5t11.5 4.5t11.5 -4.5t4.5 -11.5z" />
    <glyph glyph-name="icon-uppercase" unicode="&#xe63e;" 
d="M511 594h-1q-5 -27 -10 -41l-87 -243h195l-88 243q-4 12 -9 41zM898 864h-772q-39 0 -66.5 -27.5t-27.5 -66.5v-772q0 -39 27.5 -66.5t66.5 -27.5h772q39 0 66.5 27.5t27.5 66.5v772q0 39 -27.5 66.5t-66.5 27.5zM684 103l-57 154h-233l-54 -154h-80l213 562h78l213 -562
h-80z" />
    <glyph glyph-name="icon-warnning" unicode="&#xe63f;" 
d="M512 864q-98 0 -186.5 -38t-153 -102.5t-102.5 -153t-38 -186.5t38 -186.5t102.5 -153t153 -102.5t186.5 -38t186.5 38t153 102.5t102.5 153t38 186.5t-38 186.5t-102.5 153t-153 102.5t-186.5 38zM512 -21q-110 0 -203.5 54t-147.5 147.5t-54 203.5t54 203.5
t147.5 147.5t203.5 54t203.5 -54t147.5 -147.5t54 -203.5t-54 -203.5t-147.5 -147.5t-203.5 -54zM588 500l-159 -26v-18q32 5 42 5q12 0 20 -6q7 -7 7 -16v-1q0 -13 -15 -63l-60 -207q-11 -40 -11 -57t12 -28.5t31 -11.5q28 0 59 25q18 14 40 37.5t34 42.5l-16 11
q-27 -38 -53 -59q-9 -7 -17 -7q-6 0 -10 4q-4 5 -4 12v0q0 7 9 39zM583 683h-1q-19 0 -32 -13q-14 -13 -14 -32v-1q0 -19 14 -32.5t33 -13.5t32 13.5t13 32.5t-13 32.5t-31 13.5h-1z" />
    <glyph glyph-name="icon-umbrella" unicode="&#xe640;" 
d="M544 786v14q0 13 -9.5 22.5t-22.5 9.5t-22.5 -9.5t-9.5 -22.5v-14q-182 -11 -299 -131.5t-117 -297.5q0 -16 10 -29.5t25 -18.5q7 -2 14 -2q12 0 24 7t18 16q4 6 11.5 14.5t32 22t53.5 13.5q56 0 88 -50q14 -21 42 -21t42 21q21 34 56 44v-311q0 -33 -19 -52t-52 -19
t-52 19t-19 52q0 10 -11 16.5t-21 6.5q-9 0 -20.5 -11t-11.5 -21q0 -51 38 -84.5t97 -33.5q58 0 96.5 36t38.5 91v311q35 -11 56 -44q15 -22 42 -22h1q11 0 23 6.5t18 15.5q32 50 88 50q24 0 50 -15t36.5 -25t14.5 -15q15 -18 38 -18q9 0 17 4q13 5 22.5 18.5t9.5 27.5v0
q0 177 -117 297.5t-299 131.5zM772 444q-79 0 -130 -63q-50 61 -130 61q-81 0 -130 -61q-51 63 -130 63h-2q-28 0 -63.5 -13.5t-56.5 -32.5q14 140 114 230t251 95h33q153 -5 253.5 -96.5t112.5 -233.5q-60 51 -122 51z" />
    <glyph glyph-name="icon-wallet" unicode="&#xe641;" 
d="M705 192h-161v64h161q13 0 22 9t9 22v0v0q0 13 -9 22.5t-22 9.5h-108l94 94q9 9 9 22t-9 22.5t-22 9.5t-22 -10l-125 -124q-6 -7 -10 -14q-3 8 -8 14l-125 124q-9 10 -22 10t-22 -9.5t-9 -22.5t9 -22l94 -94h-110q-13 0 -22 -9.5t-9 -22.5v0q0 -13 9 -22t22 -9h163v-64
h-162q-13 0 -22 -9.5t-9 -22.5t9 -22.5t22 -9.5h162v-65q0 -13 9 -23.5t21.5 -10.5t22 10.5t9.5 23.5v65h161q13 0 22 9.5t9 22.5t-9 22.5t-22 9.5zM960 643q-1 51 -33.5 88t-89.5 37h-5v36q0 13 -9.5 20.5t-23 7.5t-22.5 -7.5t-9 -20.5v-36h-512v33v0q0 13 -9 22t-22 9
t-23 -9t-10 -22v-34q-54 -4 -87 -36q-41 -39 -41 -98v-572q0 -68 36 -96.5t92 -28.5h640q57 0 92.5 35.5t35.5 92.5v578v0.5v0.5zM832 0h-640q-3 0 -7 0.5t-15 3.5t-19.5 8.5t-15.5 18t-7 30.5v572q0 33 20 52q7 7 19.5 12t19.5 6t10 1h635q3 0 7 -0.5t15 -4t19.5 -9.5
t15.5 -19t7 -31q0 -3 -0.5 -7t-4 -15.5t-9.5 -19.5t-19 -15t-31 -7h-569q-13 0 -22 -10t-9 -23t9 -22t22 -9h569q36 0 64 14v-462q0 -53 -47 -62q-8 -2 -17 -2v0z" />
    <glyph glyph-name="icon-ticket" unicode="&#xe642;" 
d="M960 497q0 31 -12.5 60.5t-33.5 40.5q-2 6 -2 12q0 4 2 12q21 12 33.5 41.5t12.5 60.5q0 35 -16.5 66.5t-42.5 39.5q-5 2 -18 2h-628q-22 0 -39 -13.5t-20 -34.5q-7 -42 -30.5 -90.5t-51.5 -53.5q-21 -3 -35.5 -20t-14.5 -37v-397q0 -21 13.5 -37t34.5 -21h2
q28 -5 51.5 -53.5t30.5 -89.5q3 -22 20 -35.5t39 -13.5h628q15 0 19 1q26 9 42 40.5t16 66.5q0 31 -12.5 60.5t-33.5 40.5q-2 6 -2 12q0 3 2 12q20 11 33 41t13 61q0 30 -13 60t-33 41q-2 5 -2 12q0 2 2 12q20 10 33 40t13 61zM259 0q-7 35 -24.5 74.5t-46.5 74.5t-59 41
v388q30 6 59 41t46.5 74.5t24.5 74.5h624q13 -6 13 -45t-13 -45q-10 -3 -17 -11t-10.5 -16.5t-5.5 -19t-2 -14.5v-7q0 -4 0.5 -10.5t3.5 -19.5t10.5 -23.5t18.5 -14.5q15 -4 15 -46q0 -13 -4 -28t-10 -17q-12 -4 -19.5 -14t-10.5 -23t-3.5 -19.5t-0.5 -10.5q0 -6 1 -12.5
t3.5 -19t10 -22.5t18.5 -14q7 -2 11 -17t4 -29q0 -13 -4 -28t-11 -17q-11 -4 -18.5 -14t-10 -22.5t-3.5 -19.5t-1 -12q0 -4 0.5 -10.5t3.5 -19.5t10.5 -23.5t18.5 -13.5q6 -2 10.5 -17.5t4.5 -29.5q0 -11 -3 -25.5t-8 -17.5h-626v0zM731 308h-438q-7 0 -13 -5.5t-6 -13.5v-1
q0 -8 6 -14t13 -6h35q0 -1 -2 -3q-1 -2 -1 -4q-16 -46 -41 -87q-3 -4 -3 -10q0 -10 9 -16l1 -1q5 -3 11 -3h4q9 1 13 9q27 43 51 114v0v1v0h128v-71q0 -7 -6 -13q-5 -6 -14 -6h-12h-1q-8 0 -13.5 -5.5t-5.5 -14.5v0v0q0 -9 5.5 -14.5t14.5 -5.5h12q11 0 23 4q37 17 37 55v71
h121q0 -3 1 -5l45 -108q3 -8 10 -10q8 -4 16 0q17 7 11 26l-40 97h28q8 1 13.5 6.5t6.5 13.5v1q0 8 -6 13.5t-13 5.5zM732 630h-440q-8 0 -14 -5.5t-6 -14.5v0q0 -8 6 -14t14 -6h128v-40h-78q-25 0 -43 -18q-17 -17 -17 -42v-1v-30q0 -25 17 -43q18 -18 43 -18h337
q25 0 42 18q11 12 13 19q5 10 5 24v30q0 14 -5 24q-4 10 -13 18q-16 19 -41 19h-1h-75v40h128q8 0 14 6t6 14v0q0 9 -6 14.5t-14 5.5zM420 438h-78h-1q-7 0 -13 6q-5 6 -5 15v30q0 8 5 15q6 6 14 6v0h78v-72zM564 438h-104v72h104v-72zM564 550h-104v40h104v-40zM679 510
q8 0 14 -6t6 -15v-30q0 -9 -6 -15t-14 -6h-75v72h75zM296 335h432q8 0 13.5 5.5t6.5 13.5v1q-1 8 -6.5 14t-13.5 6h-432q-8 0 -14 -6t-6 -14v-1q0 -8 6 -13.5t14 -5.5z" />
    <glyph glyph-name="icon-warnning2" unicode="&#xe643;" 
d="M512 864q-98 0 -186.5 -38t-153 -102.5t-102.5 -153t-38 -186.5t38 -186.5t102.5 -153t153 -102.5t186.5 -38t186.5 38t153 102.5t102.5 153t38 186.5t-38 186.5t-102.5 153t-153 102.5t-186.5 38zM576 96h-128v128h128v-128zM576 320h-128v384h128v-384z" />
    <glyph glyph-name="icon-weixin" unicode="&#xe644;" 
d="M510 -18q-87 1 -151 20q-36 11 -68 -10q-22 -14 -89 -52q-21 -11 -30 -4q-11 8 -5 31q12 49 21 78q8 26 -19 46q-90 67 -134 161t-33.5 193.5t73.5 184.5q142 189 402 204q257 15 431 -153q19 -19 18 -24.5t-25 -16.5q-23 -10 -201.5 -89.5t-271.5 -121.5q-39 -18 -70 6
q-9 7 -95 68q-16 11 -26 1q-8 -9 -1 -24q10 -21 27.5 -59.5t32 -70t27.5 -58.5q12 -25 26 -29t39 10q458 265 550 319q15 10 24.5 8.5t19.5 -19.5q58 -112 36.5 -235.5t-113.5 -210.5q-157 -150 -395 -153z" />
    <glyph glyph-name="icon-xia" unicode="&#xe645;" 
d="M380 632q-43 -129 -118 -230q10 -21 17 -41q27 35 53 77v-274h35v339q27 53 52 117zM599 350h137v33h-154q5 50 6 146h130v33h-130q1 38 1 68h-39v-68h-131v-33h130q0 -101 -6 -146h-143v-33h136q-29 -98 -156 -152q18 -22 28 -36q133 70 161 175q37 -111 143 -168
q15 16 30 34q-102 39 -143 147zM644 410q38 36 68 71l-32 24q-25 -33 -61 -71zM453 503l-29 -19q30 -37 54 -69l31 23q-32 39 -56 65zM829 701l-317 131l-317 -131l-131 -317l131 -317l317 -131l317 131l131 317zM917 384l-49 -118q19 57 19 118t-19 118zM847 552
q-27 54 -70 97t-97 70l119 -48zM847 384q0 -91 -44.5 -168.5t-122 -122t-168.5 -44.5t-168.5 44.5t-122 122t-44.5 168.5t44.5 168.5t122 122t168.5 44.5t168.5 -44.5t122 -122t44.5 -168.5zM630 740q-57 19 -118 19t-118 -19l118 49zM225 671l119 48q-54 -27 -97 -70
t-70 -97zM156 502q-19 -57 -19 -118t19 -118l-49 118zM177 216q27 -54 70 -97t97 -70l-119 48zM394 28q57 -19 118 -19t118 19l-118 -49zM799 97l-119 -48q54 27 97 70t70 97z" />
    <glyph glyph-name="icon-xian" unicode="&#xe646;" 
d="M862 390l98 100l-139 21q-38 68 -101 114t-140 61l-68 146l-68 -146q-77 -15 -140 -61t-101 -114l-139 -21l98 -100q-3 -25 -3 -51q0 -71 26.5 -135t75.5 -113l-26 -155l140 77q65 -27 137 -27t137 27l140 -77l-26 155q49 49 75.5 113t26.5 135q0 25 -3 51zM512 23
q-131 0 -223.5 92.5t-92.5 223.5t92.5 223.5t223.5 92.5t223.5 -92.5t92.5 -223.5t-92.5 -223.5t-223.5 -92.5zM261 356q8 -24 15 -44q26 33 50 76v-271h39v345q24 52 47 114l-39 15q-45 -141 -112 -235zM679 190h-82v401h-41v-401h-82v301h-41v-337h246v-30h41v367h-41
v-301z" />
    <glyph glyph-name="icon-xia-big" unicode="&#xe647;" 
d="M826 702l-317 129l-315 -133l-129 -317l133 -315l317 -129l315 133l129 317zM921 364h-55v19v18h55v-37zM826 383.5q0 -63.5 -24 -122.5q-24 -56 -67.5 -99.5t-99.5 -67.5q-59 -25 -122.5 -25t-122.5 25q-56 24 -99.5 67.5t-67.5 99.5q-25 59 -25 122.5t25 122.5
q24 56 67.5 99.5t99.5 67.5q59 24 122.5 24t122.5 -24q56 -24 99.5 -67.5t67.5 -99.5q24 -59 24 -122.5zM897 522l-51 -21q-6 18 -14 35l51 21zM815 660l-40 -39q-12 14 -27 26l40 39zM685 755l-21 -52q-17 8 -35 15l22 52zM530 795v-58h-18h-20v58h38zM371 770l22 -53
q-18 -7 -35 -15l-22 53zM233 687l42 -41q-14 -13 -27 -27l-41 41zM138 558l55 -23q-8 -17 -15 -34l-54 22zM100 402h59v-18.5v-18.5h-59v37zM124 243l54 23q7 -18 15 -35l-55 -22zM206 106l42 42q13 -14 27 -27l-42 -42zM335 11l23 54q17 -8 35 -15l-23 -54zM491 -28v58h21
h17v-58h-38zM650 -4l-22 53q18 6 35 14l22 -53zM787 79l-40 40q14 12 27 26l40 -40zM883 208l-52 21q8 17 15 35l51 -21zM378 632q-43 -129 -118 -231q9 -21 16 -41q28 35 54 77v-275h35v340q27 54 52 118zM451 503l-29 -20q30 -36 54 -69l32 23q-33 40 -57 66zM643 410
q38 36 68 71l-32 24q-25 -34 -61 -71zM736 382h-155q5 50 6 147h131v33h-131q1 38 1 68h-39v-68h-132v-33h131q0 -101 -7 -147h-143v-33h137q-29 -99 -157 -153q18 -22 28 -35q134 69 162 175q37 -112 143 -169q15 16 31 35q-103 38 -144 147h138v33z" />
    <glyph glyph-name="icon-xian-big" unicode="&#xe648;" 
d="M939 254l-96 161l102 100l-146 22l-17 195l-73 -101q-12 10 -19 14l74 103l-190 -43l-62 121l-63 -122l-189 43l74 -102q-6 -5 -18 -14l-75 102l-18 -197l-145 -21l104 -100l-96 -161l120 39q3 -9 7 -22l-118 -38l175 -76l-26 -151l135 71l121 -135v120h6h7h5.5h5.5v-120
l122 134l134 -70l-26 152l175 75l-117 38q4 12 7 22zM512.5 85q-122.5 0 -209 86.5t-86.5 209t86.5 209t209 86.5t209 -86.5t86.5 -209t-86.5 -209t-209 -86.5zM307 385q7 -20 13 -36q21 27 42 63v-225h32v286q20 44 39 95l-33 12q-37 -116 -93 -195zM655 247h-69v334h-34
v-334h-68v251h-34v-281h205v-24h34v304h-34v-250z" />
    <glyph glyph-name="icon-arrowright2" unicode="&#xe649;" 
d="M434.5 566.5q-9.5 -9.5 -9.5 -22.5t10 -23l137 -137l-137 -137q-10 -10 -10 -23t9.5 -22.5t23 -9.5t22.5 9l159 159l2 3q9 9 9 21t-9 21l-2 3l-159 159q-9 9 -22.5 9t-23 -9.5zM512 -96h-2q-83 0 -183 42t-158 102q-9 9 -9 22.5t9.5 22.5t22.5 9t23 -9q50 -52 137 -88.5
t159 -36.5h1q172 0 294 122t122 294t-122 294t-294 122t-294 -122t-122 -294q0 -106 50 -198q4 -7 4 -15q0 -19 -17 -28q-7 -4 -15 -4q-19 0 -28 17q-24 44 -41 111t-17 117q0 130 64.5 240.5t175 175t240.5 64.5t240.5 -64.5t175 -175t64.5 -240.5t-64.5 -240.5t-175 -175
t-240.5 -64.5z" />
  </font>
</defs>
</svg>
